<?xml version="1.0" encoding="UTF-8"?>
<svg xmlns="http://www.w3.org/2000/svg" viewBox="0 0 248 50">
  <defs>
    <linearGradient id="grad-light-clean" x1="0%" y1="0%" x2="100%" y2="100%">
      <stop offset="0%" style="stop-color:#6ee7b7;stop-opacity:1" />
      <stop offset="50%" style="stop-color:#34d399;stop-opacity:1" />
      <stop offset="100%" style="stop-color:#059669;stop-opacity:1" />
    </linearGradient>
  </defs>
  <g>
    <g transform="translate(25, 25) scale(0.52)">
      <path d="M0 -35 L26.5 -17.5 L31.5 0 L26.5 26.5 L0 38.5 L-26.5 26.5 L-31.5 0 L-26.5 -17.5 Z"
        stroke="url(#grad-light-clean)" stroke-width="6" fill="none" stroke-linejoin="miter"/>
      <g transform="translate(0, -35)">
        <path d="M0 0 L-4.5 -6 L-2.5 -3 L0 -5 L2.5 -3 L4.5 -6 Z"
          fill="url(#grad-light-clean)" stroke="#000000" stroke-width="0.5"/>
        <circle cx="-1.5" cy="-4" r="0.75" fill="#000000"/>
        <circle cx="1.5" cy="-4" r="0.75" fill="#000000"/>
      </g>
      <path d="M0 -35 L0 -23.5" stroke="url(#grad-light-clean)" stroke-width="4.5"/>
      <path d="M0 -17.5 L14 -9 L16.5 0 L14 14 L0 21 L-14 14 L-16.5 0 L-14 -9 Z"
        stroke="#34d399" stroke-width="1" fill="none" opacity="0.22"/>
      <circle cx="0" cy="-35" r="2.5" fill="#34d399" opacity="0.15"/>
      <circle cx="26.5" cy="-17.5" r="2.5" fill="#34d399" opacity="0.15"/>
      <circle cx="31.5" cy="0" r="2.5" fill="#34d399" opacity="0.15"/>
      <circle cx="26.5" cy="26.5" r="2.5" fill="#34d399" opacity="0.15"/>
      <circle cx="0" cy="38.5" r="2.5" fill="#34d399" opacity="0.15"/>
      <circle cx="-26.5" cy="26.5" r="2.5" fill="#34d399" opacity="0.15"/>
      <circle cx="-31.5" cy="0" r="2.5" fill="#34d399" opacity="0.15"/>
      <circle cx="-26.5" cy="-17.5" r="2.5" fill="#34d399" opacity="0.15"/>
      <path d="M-9 0 L-3.5 0 M9 0 L3.5 0 M0 -9 L0 -3.5 M0 9 L0 3.5"
        stroke="#163830" stroke-width="1.25" stroke-linecap="round"/>
      <circle cx="0" cy="0" r="3" fill="none" stroke="#163830" stroke-width="1.25"/>
      <circle cx="0" cy="0" r="1.5" fill="#34d399"/>
      <path d="M-5.5 -5.5 L-7 -5.5 L-7 -7 M5.5 -5.5 L7 -5.5 L7 -7 M5.5 5.5 L7 5.5 L7 7 M-5.5 5.5 L-7 5.5 L-7 7"
        stroke="#34d399" stroke-width="1" stroke-linecap="round"/>
    </g>
    <text x="58" y="32" font-family="Avenir Next, Avenir, Helvetica Neue, Helvetica, sans-serif" font-size="24" font-weight="400" letter-spacing="-0.02em">
      <tspan fill="#163830">Solver</tspan><tspan fill="#059669">Forge</tspan>
    </text>
  </g>
</svg>
